Hanif_Shallow_5_0_grf.mot
version=1
nRows=26
nColumns=19
inDegrees=yes
endheader
time	right_ground_force_vx	right_ground_force_vy	right_ground_force_vz	right_ground_force_px	right_ground_force_py	right_ground_force_pz	right_ground_torque_x	right_ground_torque_y	right_ground_torque_z	left_ground_force_vx	left_ground_force_vy	left_ground_force_vz	left_ground_force_px	left_ground_force_py	left_ground_force_pz	left_ground_torque_x	left_ground_torque_y	left_ground_torque_z
1.700000	0.439702	289.950000	58.688700	0.231146	0.000000	-1.417540	-25.648400	-0.558591	9.279970	-2.610780	257.564000	-58.611900	0.228590	0.000000	-0.978945	19.592500	-1.262820	8.077580
1.705000	0.733853	288.659000	57.863900	0.231951	0.000000	-1.417970	-25.408900	-0.645811	9.451050	-2.618060	255.243000	-57.589700	0.229094	0.000000	-0.978897	19.402300	-1.071890	8.090750
1.710000	0.822382	288.620000	58.368100	0.232665	0.000000	-1.418650	-25.208800	-0.724939	9.652200	-2.996780	253.103000	-57.356000	0.229019	0.000000	-0.978656	19.183100	-0.997355	7.999490
1.715000	0.678835	287.152000	57.735600	0.232694	0.000000	-1.417950	-25.281900	-0.813566	9.592080	-3.149590	252.016000	-56.944300	0.229140	0.000000	-0.978864	19.152000	-0.744785	7.941050
1.720000	1.099690	284.636000	57.604400	0.233359	0.000000	-1.417990	-25.048400	-0.865547	9.689390	-3.544060	250.335000	-56.219300	0.230058	0.000000	-0.978857	19.025600	-0.582876	8.095250
1.725000	1.323800	281.271000	57.045500	0.233464	0.000000	-1.416890	-25.061100	-0.886272	9.596030	-3.215280	247.881000	-55.511200	0.230234	0.000000	-0.978663	18.785700	-0.421726	8.019190
1.730000	1.500400	281.520000	56.878100	0.234280	0.000000	-1.416880	-25.083700	-1.004670	9.814420	-3.346140	247.906000	-55.250000	0.230940	0.000000	-0.978046	18.634100	-0.249783	8.162860
1.735000	1.368040	278.744000	56.361700	0.234001	0.000000	-1.417440	-24.683100	-1.131980	9.611640	-3.918060	246.145000	-54.932200	0.231523	0.000000	-0.979133	18.773800	-0.108361	8.236360
1.740000	1.037390	278.377000	56.023000	0.234410	0.000000	-1.416750	-24.843100	-1.214020	9.704000	-4.146510	245.165000	-54.086300	0.231775	0.000000	-0.978593	18.564600	0.144687	8.206530
1.745000	0.727494	275.721000	56.288000	0.234698	0.000000	-1.417350	-24.442200	-1.298610	9.687480	-4.705690	243.885000	-53.667100	0.231249	0.000000	-0.977895	18.300600	0.219369	8.019420
1.750000	0.533454	274.028000	55.422400	0.234865	0.000000	-1.417680	-24.202500	-1.436660	9.644610	-4.957650	240.045000	-53.452200	0.232129	0.000000	-0.978781	18.227000	0.335100	8.103770
1.755000	-0.006187	270.062000	55.204500	0.235849	0.000000	-1.417070	-24.016600	-1.477440	9.784010	-4.763730	238.762000	-52.599600	0.231829	0.000000	-0.978029	17.946100	0.431051	7.952180
1.760000	-0.703831	266.815000	54.941500	0.235238	0.000000	-1.415760	-24.079000	-1.530420	9.498750	-5.039360	238.305000	-52.592500	0.231698	0.000000	-0.976905	17.643400	0.546646	7.883210
1.765000	-0.914207	266.772000	55.339100	0.235729	0.000000	-1.416910	-23.768300	-1.753040	9.594910	-4.450120	236.849000	-52.871200	0.232948	0.000000	-0.977704	17.720600	0.640573	8.123700
1.770000	-0.850806	265.716000	54.904300	0.235669	0.000000	-1.416950	-23.662200	-1.854450	9.514830	-4.357750	236.372000	-52.505500	0.231848	0.000000	-0.977377	17.604100	0.718441	7.811830
1.775000	-0.886344	264.638000	54.929000	0.236092	0.000000	-1.417450	-23.435400	-1.896700	9.585470	-4.854060	235.733000	-52.040900	0.231240	0.000000	-0.976372	17.318500	0.896551	7.603920
1.780000	-1.207470	265.565000	54.986200	0.236194	0.000000	-1.417460	-23.514300	-1.969950	9.638130	-4.618770	232.189000	-51.923500	0.232388	0.000000	-0.976187	17.014600	0.939517	7.761620
1.785000	-1.610320	263.150000	54.668900	0.235982	0.000000	-1.416510	-23.549800	-2.100740	9.470790	-4.932290	231.725000	-51.733600	0.232000	0.000000	-0.976632	17.082900	1.054320	7.630580
1.790000	-1.838190	262.543000	55.137200	0.235636	0.000000	-1.417910	-23.127400	-2.121670	9.357100	-5.216370	230.248000	-51.499300	0.232247	0.000000	-0.976580	16.961300	1.182200	7.617700
1.795000	-1.982410	261.446000	54.504400	0.236036	0.000000	-1.418360	-22.912500	-2.172870	9.414090	-5.402260	229.546000	-51.303600	0.233206	0.000000	-0.974779	16.497100	1.215850	7.817940
1.800000	-2.558100	259.691000	54.537200	0.236334	0.000000	-1.417770	-22.913100	-2.249450	9.426680	-6.072990	226.705000	-50.494400	0.232731	0.000000	-0.976218	16.620800	1.282470	7.601690
1.805000	-2.636630	256.535000	54.375200	0.235923	0.000000	-1.417100	-22.805400	-2.256920	9.200840	-6.383640	224.718000	-49.984700	0.233214	0.000000	-0.974862	16.170900	1.333430	7.638420
1.810000	-3.236750	256.643000	53.937100	0.235852	0.000000	-1.417500	-22.710400	-2.378740	9.167960	-6.198490	222.597000	-49.586600	0.232528	0.000000	-0.974306	15.890900	1.394730	7.387790
1.815000	-3.946060	253.855000	53.176600	0.235748	0.000000	-1.417000	-22.589700	-2.487240	9.025590	-6.297860	221.411000	-49.311400	0.232653	0.000000	-0.975050	15.971100	1.418770	7.373360
1.820000	-3.728940	252.854000	53.245100	0.235944	0.000000	-1.417930	-22.262900	-2.568810	9.019860	-6.281420	217.914000	-48.910200	0.232236	0.000000	-0.976351	15.998600	1.539930	7.136430
1.825000	-4.425880	250.661000	52.946300	0.235364	0.000000	-1.418270	-21.983800	-2.576740	8.797720	-6.502770	217.664000	-48.539100	0.232556	0.000000	-0.975143	15.716400	1.597830	7.186860
